<?xml version="1.0" encoding="utf-8"?>
<!-- Generator: Adobe Illustrator 16.0.0, SVG Export Plug-In . SVG Version: 6.00 Build 0)  -->
<!DOCTYPE svg PUBLIC "-//W3C//DTD SVG 1.1//EN" "http://www.w3.org/Graphics/SVG/1.1/DTD/svg11.dtd">
<svg version="1.1" id="Layer_1" xmlns="http://www.w3.org/2000/svg" xmlns:xlink="http://www.w3.org/1999/xlink" x="0px" y="0px"
	 width="148.074px" height="19.124px" viewBox="0 0 148.074 19.124" enable-background="new 0 0 148.074 19.124"
	 xml:space="preserve">
<g>
	<path fill="#2D3F50" d="M0,0.427h7.908c3.619,0,5.951,1.662,5.951,4.718c0,2.172-1.072,3.379-2.519,3.914
		c1.688,0.483,3.296,1.717,3.296,4.316c0,3.324-2.439,5.281-6.97,5.281H0V0.427z M7.236,7.557c1.342,0,1.851-0.614,1.851-1.635
		c0-1.018-0.456-1.662-1.796-1.662H4.718v3.297H7.236z M7.64,14.821c1.582,0,2.117-0.723,2.117-1.902s-0.563-1.877-2.117-1.877
		H4.718v3.779H7.64z"/>
	<path fill="#2D3F50" d="M17.532,0.427h4.88v18.229h-4.88V0.427z"/>
	<path fill="#2D3F50" d="M36.595,0.427h5.277l-6.058,7.909l6.784,10.321h-5.766l-4.341-6.622l-1.528,1.878v4.744h-4.879V0.427h4.879
		v7.56L36.595,0.427z"/>
	<path fill="#2D3F50" d="M44.771,0.427h12.787v4.101H49.65v3.004h6.596v3.886H49.65v3.135h8.282v4.103H44.771V0.427z"/>
</g>
<g>
	<path fill="#2D3F50" d="M67.979,0.427h2.198v18.229h-2.198V0.427z M70.66,18.655V0.427h2.197v18.229H70.66L70.66,18.655z"/>
	<path fill="#2D3F50" d="M78.621,18.655h-2.037V0.185c0-0.16,0.08-0.294,0.375-0.053l11.5,9.516V0.427h2.037v13.484L78.621,4.18
		V18.655z M81.115,9.487v9.168h-2.011V5.198l11.874,9.73V0.427h2.012v18.496c0,0.215-0.082,0.295-0.375,0.055L81.115,9.487z"/>
	<path fill="#2D3F50" d="M96.607,0.427h7.051c5.254,0,9.222,3.458,9.222,9.115c0,5.654-3.968,9.113-9.222,9.113h-7.051V0.427z
		 M98.805,16.833h4.583c4.236,0,7.238-2.788,7.238-7.291c0-4.505-3.002-7.292-7.238-7.292h-4.583V16.833z M99.287,2.733h4.102
		c3.968,0,6.755,2.625,6.755,6.81c0,4.181-2.787,6.81-6.755,6.81h-4.102V2.733z M103.121,14.528c2.949,0,4.771-1.957,4.771-4.985
		c0-3.03-1.821-4.987-4.771-4.987h-1.635v9.973H103.121L103.121,14.528z"/>
	<path fill="#2D3F50" d="M115.504,0.427h12.786V2.25h-10.588v14.608h10.963v1.797h-13.161V0.427z M126.978,9.247h-8.792V2.731
		h10.104v1.797h-7.907V7.53h6.595V9.247L126.978,9.247z M128.666,16.377h-10.479V9.729h8.792v1.688h-6.595v3.137h8.282V16.377z"/>
	<path fill="#2D3F50" d="M131.132,0.427h2.466l5.2,8.311l-6.406,9.918h-2.251l6.3-9.782L131.132,0.427z M139.121,9.165l5.925,9.49
		h-2.413l-3.674-6.191l-3.752,6.191h-2.228L139.121,9.165z M134.188,0.427h2.386l2.735,4.61l2.706-4.61h2.198l-5.093,7.908
		L134.188,0.427z M145.66,18.655l-6.217-9.918l5.387-8.312h2.252l-5.279,8.229l6.271,9.998h-2.414V18.655z"/>
</g>
<g>
</g>
<g>
</g>
<g>
</g>
<g>
</g>
<g>
</g>
<g>
</g>
</svg>
