<?xml version="1.0" encoding="utf-8"?>
<!-- Generator: Adobe Illustrator 16.0.0, SVG Export Plug-In . SVG Version: 6.00 Build 0)  -->
<!DOCTYPE svg PUBLIC "-//W3C//DTD SVG 1.1//EN" "http://www.w3.org/Graphics/SVG/1.1/DTD/svg11.dtd">
<svg version="1.1"
     xmlns="http://www.w3.org/2000/svg" xmlns:xlink="http://www.w3.org/1999/xlink" x="0px" y="0px" width="326.623px"
     height="189.29px" viewBox="55.833 153.148 326.623 189.29" enable-background="new 55.833 153.148 326.623 189.29"
     xml:space="preserve">
<path xmlns="http://www.w3.org/2000/svg" d="m 269.62646,283.08936 42.75586,-6.97803 -26.94628,-35.00293 c -13.96729,12.17871 -15.70508,26.79785 -15.80958,41.98096 z m -11.76171,2.56103 c -0.0688,-1.51709 -0.3125,-3.95654 -0.3125,-5.66455 0,-17.3208 5.60302,-34.15283 20.81005,-48.1416 l -15.8374,-18.96289 -24.51367,74.78369 19.85352,-2.01465 z m -94.08887,-74.42822 1.35889,-4.16162 87.31152,-0.11426 -23.22656,70.41064 -1.00244,-7.34521 h 2.67236 l -0.33545,-4.67432 h -11.68604 l 0.33448,4.34082 h 3.00537 l 0.66748,8.01367 c 0,0 -58.76563,-66.13623 -59.09961,-66.46972 z m -38.66943,67.63818 c 11.72509,-9.31348 20.85156,-18.18945 27.4331,-35.95264 10.3877,9.42334 16.31445,23.05323 16.31445,37.07813 0,27.85156 -22.71728,50.56836 -50.56982,50.56836 -27.852051,0 -50.56836,-22.7168 -50.56836,-50.56836 0,-27.85254 22.716309,-50.56885 50.56836,-50.56885 8.88965,0 17.97607,2.56738 25.30322,6.89258 -4.95996,15.67188 -9.78418,23.75488 -25.04443,36.03955 -3.7041,0.15625 -6.521,3.13037 -6.521,6.67774 0,3.67871 2.99951,6.67822 6.67725,6.67822 3.67822,0 6.40723,-2.99951 6.40723,-6.84473 z m 146.31152,14.97363 c 5.71924,21.31348 26.06592,36.72168 48.58545,36.72168 27.85254,0 50.57031,-22.71679 50.57031,-50.56982 0,-27.85254 -22.71777,-50.57031 -50.57031,-50.57031 -8.88965,0 -19.17481,2.09863 -26.67871,6.49121 l 27.44775,36.44238 c 3.35693,0.0527 6.27979,3.05225 6.27979,6.67774 0,3.67871 -3.00098,6.67822 -6.67823,6.67822 -1.01806,0 -2.08691,-0.26074 -2.98974,-0.68604 l -45.96631,8.81494 z m -124.22022,-69.22949 17.91358,-49.41894 -5.67627,-9.68409 11.35254,-12.35351 h 24.37402 l 0.33447,7.01172 h -21.36963 l -4.34033,4.67431 5.00782,9.01514 -6.29786,22.32227 h 87.4751 l 1.33643,-4.08252 c -7.03028,-0.91504 -19.15625,-5.24658 -22.05225,-7.76123 -2.89599,-2.51612 -0.36035,-4.82959 2.93848,-4.93799 17.26513,-0.7334 42.91504,-2.17969 47.78808,-2.20069 4.87159,-0.0225 5.37061,2.42823 2.10938,5.9961 -3.26172,3.56738 -6.11279,6.77978 -18.47022,8.69433 l -3.33838,9.01514 20.69874,25.64356 c 9.75683,-5.92334 21.55664,-9.00489 33.02197,-9.00489 34.39746,0 62.45215,28.05469 62.45215,62.45264 0,34.39746 -28.05469,62.45166 -62.45215,62.45166 -28.29834,0 -53.18164,-19.51562 -60.49414,-46.48877 l -19.02051,3.41797 c -0.81445,2.24219 -2.71191,3.96191 -4.979,5.30762 l 3.39257,16.09033 h 4.34034 l 0.33398,4.34082 -13.68945,0.66699 v -4.67432 h 3.33935 l -4.13525,-16.08105 c -6.15381,-1.00635 -9.37793,-6.27393 -7.54541,-11.50195 l -62.13428,-70.27295 -2.78174,7.54004 c 15.08008,11.87793 24.10645,30.1748 24.10645,49.20361 0,34.39746 -28.05469,62.45166 -62.45215,62.45166 -34.396973,0 -62.45166,-28.0542 -62.45166,-62.45166 0,-34.39795 28.054687,-62.45264 62.45166,-62.45264 10.00244,0 20.24853,2.44092 28.91357,7.07129 z" id="path15" style="fill-rule:evenodd"/>
</svg>
