<?xml version="1.0" encoding="utf-8"?>

<!--
  Copyright (c) 2014 The Polymer Authors. All rights reserved.

  Redistribution and use in source and binary forms, with or without
  modification, are permitted provided that the following conditions are
  met:

     * Redistributions of source code must retain the above copyright
  notice, this list of conditions and the following disclaimer.
     * Redistributions in binary form must reproduce the above
  copyright notice, this list of conditions and the following disclaimer
  in the documentation and/or other materials provided with the
  distribution.
     * Neither the name of Google Inc. nor the names of its
  contributors may be used to endorse or promote products derived from
  this software without specific prior written permission.

  THIS SOFTWARE IS PROVIDED BY THE COPYRIGHT HOLDERS AND CONTRIBUTORS
  "AS IS" AND ANY EXPRESS OR IMPLIED WARRANTIES, INCLUDING, BUT NOT
  LIMITED TO, THE IMPLIED WARRANTIES OF MERCHANTABILITY AND FITNESS FOR
  A PARTICULAR PURPOSE ARE DISCLAIMED. IN NO EVENT SHALL THE COPYRIGHT
  OWNER OR CONTRIBUTORS BE LIABLE FOR ANY DIRECT, INDIRECT, INCIDENTAL,
  SPECIAL, EXEMPLARY, OR CONSEQUENTIAL DAMAGES (INCLUDING, BUT NOT
  LIMITED TO, PROCUREMENT OF SUBSTITUTE GOODS OR SERVICES; LOSS OF USE,
  DATA, OR PROFITS; OR BUSINESS INTERRUPTION) HOWEVER CAUSED AND ON ANY
  THEORY OF LIABILITY, WHETHER IN CONTRACT, STRICT LIABILITY, OR TORT
  (INCLUDING NEGLIGENCE OR OTHERWISE) ARISING IN ANY WAY OUT OF THE USE
  OF THIS SOFTWARE, EVEN IF ADVISED OF THE POSSIBILITY OF SUCH DAMAGE.
-->

<!-- Generator: Adobe Illustrator 16.0.0, SVG Export Plug-In . SVG Version: 6.00 Build 0)  -->
<!DOCTYPE svg PUBLIC "-//W3C//DTD SVG 1.1//EN" "http://www.w3.org/Graphics/SVG/1.1/DTD/svg11.dtd">
<svg version="1.1" id="Layer_1" xmlns="http://www.w3.org/2000/svg" xmlns:xlink="http://www.w3.org/1999/xlink" x="0px" y="0px"
	 width="48px" height="48px" viewBox="0 0 48 48" enable-background="new 0 0 48 48" xml:space="preserve">
<path fill="none" d="M48,0H0v48h48V0z"/>
<path d="M16,9.6c-1.98,0-3.6-1.61-3.6-3.6S14.02,2.4,16,2.4c1.99,0,3.6,1.61,3.6,3.6S17.99,9.6,16,9.6z M10,24c5.52,0,10,4.48,10,10
	s-4.48,10-10,10S0,39.52,0,34S4.48,24,10,24z M10,41c3.87,0,7-3.13,7-7s-3.13-7-7-7s-7,3.13-7,7S6.13,41,10,41z M18.4,20H10v-3.6
	h6.4l3.869-6.53c0.59-1,1.681-1.67,2.931-1.67c0.94,0,1.79,0.38,2.399,1l7.4,7.39c0.62,0.62,1,1.47,1,2.41
	c0,1.26-0.67,2.32-1.7,2.94L25.6,26v10H22V23.04l4.5-3.34l-4.641-4.66L18.4,20z M38,24c5.52,0,10,4.48,10,10s-4.48,10-10,10
	s-10-4.48-10-10S32.48,24,38,24z M38,41c3.87,0,7-3.13,7-7s-3.13-7-7-7s-7,3.13-7,7S34.13,41,38,41z"/>
</svg>
